<svg id="Layer_1" enable-background="new 0 0 512 512" height="512" viewBox="0 0 512 512" width="512" xmlns="http://www.w3.org/2000/svg"><path d="m256 0c-141.5 0-256 114.52-256 256 0 141.5 114.52 256 256 256 141.5 0 256-114.52 256-256 0-141.5-114.52-256-256-256z" fill="#8bf2cf"/><path d="m512 256c0 141.48-114.5 256-256 256v-512c141.48 0 256 114.5 256 256z" fill="#57d9d4"/><path d="m482 256c0 125-100.97 226-226 226-125 0-226-100.97-226-226 0-125 100.97-226 226-226z" fill="#57d9d4"/><path d="m482 256c0 125-100.97 226-226 226v-452z" fill="#26bfbf"/><path d="m421 256c0 90.98-74.02 165-165 165-78.18 0-146.19-55.58-161.72-132.17l29.41-5.96c12.7 62.66 68.35 108.13 132.31 108.13 74.44 0 135-60.56 135-135l15-8z" fill="#8bf2cf"/><path d="m421 256c0 90.98-74.02 165-165 165v-30c74.44 0 135-60.56 135-135l15-8z" fill="#57d9d4"/><path d="m123.686 229.127-29.402-5.962c15.529-76.581 83.54-132.165 161.716-132.165l11 14-11 16c-63.964 0-119.61 45.474-132.314 108.127z" fill="#8bf2cf"/><path d="m106 301c-24.813 0-45-20.187-45-45s20.187-45 45-45 45 20.187 45 45-20.187 45-45 45z" fill="#ff637b"/><path d="m482 256h-226v-226c125 0 226 100.97 226 226z" fill="#1a9ea6"/><path d="m256 181c-41.36 0-75 33.64-75 75s33.64 75 75 75 75-33.64 75-75-33.64-75-75-75z" fill="#8bf2cf"/><path d="m331 256c0 41.36-33.64 75-75 75v-150c41.36 0 75 33.64 75 75z" fill="#57d9d4"/></svg>