<?xml version="1.0" encoding="iso-8859-1"?>
<!-- Generator: Adobe Illustrator 19.0.0, SVG Export Plug-In . SVG Version: 6.00 Build 0)  -->
<svg version="1.1" id="Capa_1" xmlns="http://www.w3.org/2000/svg" xmlns:xlink="http://www.w3.org/1999/xlink" x="0px" y="0px"
	 viewBox="0 0 512 512" style="enable-background:new 0 0 512 512;" xml:space="preserve">
<g>
	<path style="fill:#DDFFFB;" d="M256.002,512c-68.381-0.001-132.668-26.63-181.02-74.982C26.631,388.667,0.002,324.38,0,256
		c0.002-68.38,26.631-132.668,74.981-181.02C123.333,26.628,187.619,0,255.998,0c68.38-0.001,132.667,26.626,181.02,74.976
		c5.858,5.858,5.858,15.355,0,21.213c-5.857,5.858-15.355,5.858-21.213,0C373.119,53.506,316.365,29.999,255.998,30
		C131.385,30,30.003,131.383,30,256c0.003,124.614,101.387,225.997,226.002,226C380.618,482,482,380.616,482,255.998
		c0-8.284,6.716-15,15-15s15,6.716,15,15c0,68.38-26.629,132.668-74.981,181.021C388.667,485.371,324.381,512,256.002,512z"/>
	<path style="fill:#DDFFFB;" d="M256.002,415.6c-88.004,0-159.6-71.596-159.6-159.6s71.596-159.6,159.6-159.6
		c42.627,0,82.704,16.599,112.849,46.739c5.858,5.857,5.859,15.355,0.002,21.213s-15.355,5.859-21.213,0.002
		c-24.479-24.475-57.023-37.954-91.638-37.954c-71.462,0-129.6,58.138-129.6,129.6s58.138,129.6,129.6,129.6
		c71.461,0,129.599-58.138,129.599-129.6c0-8.284,6.716-15,15-15s15,6.716,15,15C415.601,344.003,344.005,415.6,256.002,415.6z"/>
</g>
<g>
	<path style="fill:#9BFBFF;" d="M415.805,96.19c5.857,5.858,15.355,5.857,21.213,0c5.858-5.858,5.858-15.355,0-21.213
		C388.665,26.626,324.378-0.001,255.998,0v30C316.365,29.999,373.119,53.506,415.805,96.19z"/>
	<path style="fill:#9BFBFF;" d="M497,240.998c-8.284,0-15,6.716-15,15C482,380.616,380.618,482,256.002,482
		c-0.001,0-0.003,0-0.004,0v30c0.001,0,0.003,0,0.004,0c68.379,0,132.665-26.629,181.017-74.981
		C485.371,388.666,512,324.378,512,255.998C512,247.714,505.284,240.998,497,240.998z"/>
	<path style="fill:#9BFBFF;" d="M256.002,126.4c34.614,0,67.158,13.479,91.638,37.954c5.858,5.857,15.355,5.857,21.213-0.002
		c5.858-5.858,5.857-15.356-0.002-21.213C338.706,112.999,298.629,96.4,256.002,96.4c-0.001,0-0.003,0-0.004,0v30
		C255.999,126.4,256.001,126.4,256.002,126.4z"/>
	<path style="fill:#9BFBFF;" d="M256.002,415.6c88.003,0,159.599-71.596,159.599-159.6c0-8.284-6.716-15-15-15s-15,6.716-15,15
		c0,71.461-58.138,129.6-129.599,129.6c-0.001,0-0.003,0-0.004,0v30C255.999,415.6,256.001,415.6,256.002,415.6z"/>
</g>
<path style="fill:#00EED1;" d="M437.018,74.98c-5.857-5.857-15.355-5.857-21.213,0L288.818,201.97
	c-9.791-5.972-21.059-9.17-32.82-9.169c-34.847,0-63.197,28.351-63.197,63.199s28.352,63.199,63.2,63.199s63.2-28.351,63.2-63.198
	c0-11.761-3.199-23.026-9.17-32.817l126.987-126.99C442.876,90.335,442.876,80.838,437.018,74.98z"/>
<path style="fill:#00B6BD;" d="M211.331,300.667c11.443,11.444,27.244,18.532,44.669,18.532c34.849,0,63.2-28.351,63.2-63.198
	c0-11.761-3.199-23.026-9.17-32.817l126.987-126.99c5.858-5.858,5.858-15.355,0-21.213L211.331,300.667z"/>
<g>
</g>
<g>
</g>
<g>
</g>
<g>
</g>
<g>
</g>
<g>
</g>
<g>
</g>
<g>
</g>
<g>
</g>
<g>
</g>
<g>
</g>
<g>
</g>
<g>
</g>
<g>
</g>
<g>
</g>
</svg>
